<?xml version="1.0" standalone="no"?><!DOCTYPE svg PUBLIC "-//W3C//DTD SVG 1.1//EN" "http://www.w3.org/Graphics/SVG/1.1/DTD/svg11.dtd"><svg t="1679473750744" class="icon" viewBox="0 0 1024 1024" version="1.1" xmlns="http://www.w3.org/2000/svg" p-id="1678" xmlns:xlink="http://www.w3.org/1999/xlink" width="37.07" height="36"><path d="M128 256a85.333333 85.333333 0 0 1 85.333333-85.333333h597.333334a85.333333 85.333333 0 0 1 85.333333 85.333333v384a85.333333 85.333333 0 0 1-85.333333 85.333333H213.333333a85.333333 85.333333 0 0 1-85.333333-85.333333V256z m85.333333-21.333333a21.333333 21.333333 0 0 0-21.333333 21.333333v384a21.333333 21.333333 0 0 0 21.333333 21.333333h597.333334a21.333333 21.333333 0 0 0 21.333333-21.333333V256a21.333333 21.333333 0 0 0-21.333333-21.333333H213.333333z" fill="#707070" p-id="1679"></path><path d="M309.333333 320a32 32 0 0 0-32 32v211.797333c0 6.741333 5.461333 12.202667 12.202667 12.202667h39.594667A12.202667 12.202667 0 0 0 341.333333 563.797333V352a32 32 0 0 0-32-32zM586.666667 320a32 32 0 0 0-32 32v211.797333c0 6.741333 5.461333 12.202667 12.202666 12.202667h39.594667a12.202667 12.202667 0 0 0 12.202667-12.202667V352a32 32 0 0 0-32-32zM714.666667 384a32 32 0 0 0-32 32v147.797333c0 6.741333 5.461333 12.202667 12.202666 12.202667h39.594667a12.202667 12.202667 0 0 0 12.202667-12.202667V416a32 32 0 0 0-32-32zM437.333333 384a32 32 0 0 0-32 32v147.797333c0 6.741333 5.461333 12.202667 12.202667 12.202667h39.594667a12.202667 12.202667 0 0 0 12.202666-12.202667V416a32 32 0 0 0-32-32zM320 789.333333a32 32 0 0 0 0 64h384a32 32 0 0 0 0-64h-384z" fill="#707070" p-id="1680"></path></svg>